<svg width="10" height="12" viewBox="0 0 10 12" fill="none" xmlns="http://www.w3.org/2000/svg">
<path id="Vector" d="M1.93089 1.43089C1.93089 1.0514 2.08165 0.687444 2.34999 0.419099C2.61834 0.150754 2.98229 0 3.36179 0H7.65447C8.03397 0 8.39792 0.150754 8.66627 0.419099C8.93461 0.687444 9.08537 1.0514 9.08537 1.43089V8.58537C9.08537 8.96486 8.93461 9.32882 8.66627 9.59716C8.39792 9.86551 8.03397 10.0163 7.65447 10.0163H3.36179C2.98229 10.0163 2.61834 9.86551 2.34999 9.59716C2.08165 9.32882 1.93089 8.96486 1.93089 8.58537V1.43089ZM0.5 2.86179C0.500006 2.61062 0.566126 2.36388 0.691713 2.14636C0.8173 1.92885 0.997929 1.74822 1.21545 1.62263V8.94309C1.21545 9.41746 1.40389 9.8724 1.73932 10.2078C2.07475 10.5433 2.52969 10.7317 3.00407 10.7317H7.46273C7.33715 10.9492 7.15652 11.1299 6.939 11.2554C6.72149 11.381 6.47475 11.4471 6.22358 11.4472H3.00407C2.33995 11.4472 1.70303 11.1833 1.23342 10.7137C0.763821 10.2441 0.5 9.60721 0.5 8.94309V2.86179Z" fill="white"/>
</svg>
