<svg width="54" height="54" viewBox="0 0 54 54" fill="none" xmlns="http://www.w3.org/2000/svg">
<g id="mingcute:mic-fill">
<g id="Group">
<path id="Vector" d="M42.6095 27.0223C42.9004 27.0634 43.1804 27.1615 43.4333 27.3109C43.6863 27.4603 43.9073 27.6582 44.0837 27.8931C44.2601 28.128 44.3884 28.3955 44.4614 28.6801C44.5343 28.9647 44.5504 29.2608 44.5087 29.5517C43.9487 33.4261 42.1328 37.0098 39.3398 39.7528C36.5467 42.4958 32.9308 44.2466 29.0469 44.7365V47.1094C29.0469 47.702 28.8115 48.2703 28.3924 48.6893C27.9734 49.1083 27.4051 49.3438 26.8125 49.3438C26.2199 49.3438 25.6516 49.1083 25.2325 48.6893C24.8135 48.2703 24.5781 47.702 24.5781 47.1094V44.7365C20.6947 44.2457 17.0795 42.4946 14.287 39.7518C11.4944 37.0089 9.67877 33.4256 9.11847 29.5517C9.03432 28.965 9.18668 28.3689 9.54201 27.8946C9.89734 27.4202 10.4266 27.1065 11.0132 27.0223C11.5999 26.9382 12.196 27.0905 12.6703 27.4459C13.1446 27.8012 13.4584 28.3304 13.5425 28.9171C14.0046 32.1069 15.6003 35.0234 18.0372 37.1328C20.4742 39.2422 23.5894 40.4031 26.8125 40.4031C30.0356 40.4031 33.1508 39.2422 35.5877 37.1328C38.0247 35.0234 39.6203 32.1069 40.0824 28.9171C40.1241 28.6266 40.2225 28.3471 40.3722 28.0947C40.5218 27.8422 40.7197 27.6217 40.9546 27.4458C41.1895 27.2698 41.4567 27.1419 41.7411 27.0692C42.0254 26.9966 42.319 26.9806 42.6095 27.0223ZM26.8125 4.65625C29.7755 4.65625 32.6171 5.83328 34.7122 7.92842C36.8073 10.0235 37.9844 12.8652 37.9844 15.8281V27C37.9844 29.963 36.8073 32.8046 34.7122 34.8997C32.6171 36.9948 29.7755 38.1719 26.8125 38.1719C23.8495 38.1719 21.0079 36.9948 18.9128 34.8997C16.8176 32.8046 15.6406 29.963 15.6406 27V15.8281C15.6406 12.8652 16.8176 10.0235 18.9128 7.92842C21.0079 5.83328 23.8495 4.65625 26.8125 4.65625Z" fill="white" fill-opacity="0.46"/>
</g>
</g>
</svg>
