<svg width="48" height="48" viewBox="0 0 48 48" fill="none" xmlns="http://www.w3.org/2000/svg">
<g id="Frame 68">
<rect width="48" height="48" rx="24" fill="#0F1018"/>
<g id="Group 5">
<path id="Vector 1" d="M16.6483 30.9753L12.9257 27.2527C22.0224 19.7263 24.7027 9.94822 24.9058 6L26.8686 13.5129C25.1359 18.6569 21.138 24.2295 19.3557 26.3728C24.8245 24.9109 31.8321 25.7637 34.6522 26.3728L37.2919 30.9753C27.9786 27.7265 19.649 29.6216 16.6483 30.9753Z" fill="#E15E36"/>
<path id="Vector 2" d="M35.4042 17.4345L38.0365 21.9937C27.3018 26.9093 22.1821 35.6605 20.9641 39.4216L21.0126 31.6567C24.0176 27.1365 29.3216 22.7884 31.5979 21.1794C25.937 21.1762 19.389 18.5387 16.8226 17.2204L15.4641 12.0915C23.6192 17.6401 32.1555 17.9654 35.4042 17.4345Z" fill="#E15E36"/>
</g>
</g>
</svg>
