<svg width="283" height="112" viewBox="0 0 283 112" fill="none" xmlns="http://www.w3.org/2000/svg">
<g opacity="0.21">
<path d="M167.041 8.74883C166.096 8.95135 165.254 9.48148 164.662 10.2454C164.071 11.0093 163.769 11.9578 163.81 12.923V94.7691C163.714 95.3547 163.746 95.9542 163.905 96.5259C164.064 97.0976 164.345 97.628 164.729 98.0803C165.114 98.5325 165.592 98.8958 166.13 99.1449C166.669 99.3941 167.255 99.5231 167.848 99.5231C168.442 99.5231 169.028 99.3941 169.567 99.1449C170.105 98.8958 170.583 98.5325 170.967 98.0803C171.351 97.628 171.633 97.0976 171.791 96.5259C171.95 95.9542 171.983 95.3547 171.887 94.7691V12.923C171.9 12.3477 171.793 11.776 171.57 11.2451C171.348 10.7143 171.016 10.2364 170.597 9.84244C170.177 9.44853 169.679 9.14752 169.136 8.95908C168.592 8.77064 168.015 8.699 167.441 8.74883C167.308 8.74262 167.174 8.74262 167.041 8.74883ZM115.348 13.0565C114.404 13.259 113.561 13.7892 112.97 14.5531C112.379 15.317 112.077 16.2655 112.118 17.2307V90.4614C112.022 91.047 112.054 91.6465 112.213 92.2182C112.372 92.79 112.653 93.3203 113.037 93.7726C113.421 94.2248 113.899 94.5881 114.438 94.8372C114.976 95.0864 115.563 95.2154 116.156 95.2154C116.749 95.2154 117.336 95.0864 117.874 94.8372C118.413 94.5881 118.891 94.2248 119.275 93.7726C119.659 93.3203 119.94 92.79 120.099 92.2182C120.258 91.6465 120.29 91.047 120.194 90.4614V17.2307C120.208 16.6554 120.1 16.0836 119.878 15.5528C119.656 15.022 119.324 14.544 118.905 14.1501C118.485 13.7562 117.987 13.4552 117.443 13.2668C116.9 13.0783 116.322 13.0067 115.749 13.0565C115.615 13.0503 115.482 13.0503 115.348 13.0565ZM154.118 25.9796C153.173 26.1821 152.331 26.7122 151.739 27.4762C151.148 28.2401 150.846 29.1886 150.887 30.1538V77.5384C150.789 78.1247 150.82 78.7254 150.977 79.2986C151.135 79.8718 151.416 80.4038 151.8 80.8575C152.184 81.3112 152.663 81.6758 153.202 81.9258C153.741 82.1758 154.329 82.3054 154.923 82.3054C155.518 82.3054 156.105 82.1758 156.644 81.9258C157.184 81.6758 157.662 81.3112 158.046 80.8575C158.43 80.4038 158.711 79.8718 158.869 79.2986C159.026 78.7254 159.057 78.1247 158.959 77.5384V30.1538C158.973 29.5792 158.865 29.0083 158.644 28.4781C158.422 27.948 158.091 27.4704 157.672 27.0767C157.254 26.6829 156.757 26.3817 156.214 26.1927C155.672 26.0036 155.095 25.9311 154.522 25.9796C154.386 25.9731 154.254 25.9731 154.118 25.9796ZM102.425 30.2873C101.481 30.4898 100.638 31.0199 100.047 31.7839C99.4557 32.5478 99.1537 33.4963 99.1945 34.4615V73.2307C99.0965 73.817 99.1274 74.4177 99.2851 74.9909C99.4428 75.5641 99.7235 76.0961 100.108 76.5498C100.492 77.0035 100.97 77.3681 101.51 77.6181C102.049 77.8682 102.636 77.9977 103.231 77.9977C103.825 77.9977 104.413 77.8682 104.952 77.6181C105.491 77.3681 105.97 77.0035 106.354 76.5498C106.738 76.0961 107.019 75.5641 107.176 74.9909C107.334 74.4177 107.365 73.817 107.267 73.2307V34.4615C107.281 33.8869 107.173 33.316 106.951 32.7858C106.73 32.2557 106.399 31.7781 105.98 31.3844C105.561 30.9906 105.065 30.6894 104.522 30.5004C103.979 30.3113 103.403 30.2387 102.83 30.2873C102.694 30.2808 102.562 30.2808 102.425 30.2873ZM128.271 34.595C127.327 34.7975 126.484 35.3276 125.893 36.0916C125.302 36.8555 125 37.804 125.041 38.7691V68.923C124.943 69.5094 124.974 70.11 125.131 70.6832C125.289 71.2564 125.57 71.7884 125.954 72.2421C126.338 72.6958 126.816 73.0604 127.356 73.3104C127.895 73.5605 128.482 73.69 129.077 73.69C129.671 73.69 130.259 73.5605 130.798 73.3104C131.338 73.0604 131.816 72.6958 132.2 72.2421C132.584 71.7884 132.865 71.2564 133.023 70.6832C133.18 70.11 133.211 69.5094 133.113 68.923V38.7691C133.127 38.1946 133.019 37.6237 132.797 37.0935C132.576 36.5634 132.245 36.0858 131.826 35.6921C131.408 35.2983 130.911 34.9971 130.368 34.8081C129.825 34.619 129.249 34.5464 128.676 34.595C128.54 34.5885 128.408 34.5885 128.271 34.595ZM179.964 34.595C179.019 34.7975 178.177 35.3276 177.585 36.0916C176.994 36.8555 176.692 37.804 176.733 38.7691V68.923C176.637 69.5086 176.67 70.108 176.828 70.6798C176.987 71.2515 177.268 71.7819 177.653 72.2341C178.037 72.6864 178.515 73.0496 179.053 73.2988C179.592 73.5479 180.178 73.677 180.771 73.677C181.365 73.677 181.951 73.5479 182.49 73.2988C183.028 73.0496 183.506 72.6864 183.89 72.2341C184.274 71.7819 184.556 71.2515 184.714 70.6798C184.873 70.108 184.906 69.5086 184.81 68.923V38.7691C184.824 38.1938 184.716 37.6221 184.493 37.0913C184.271 36.5605 183.939 36.0825 183.52 35.6886C183.1 35.2947 182.603 34.9937 182.059 34.8052C181.515 34.6168 180.938 34.5452 180.364 34.595C180.231 34.5888 180.097 34.5888 179.964 34.595ZM89.5022 43.2104C88.5576 43.4129 87.7151 43.943 87.1239 44.707C86.5326 45.4709 86.2306 46.4194 86.2714 47.3845V60.3076C86.1755 60.8932 86.208 61.4926 86.3668 62.0644C86.5256 62.6361 86.8068 63.1665 87.191 63.6187C87.5752 64.071 88.0531 64.4343 88.5916 64.6834C89.1302 64.9325 89.7165 65.0616 90.3099 65.0616C90.9033 65.0616 91.4895 64.9325 92.0281 64.6834C92.5666 64.4343 93.0446 64.071 93.4287 63.6187C93.8129 63.1665 94.0941 62.6361 94.2529 62.0644C94.4117 61.4926 94.4443 60.8932 94.3483 60.3076V47.3845C94.362 46.8092 94.2542 46.2375 94.0319 45.7067C93.8096 45.1759 93.4779 44.6979 93.0584 44.304C92.6389 43.9101 92.141 43.6091 91.5972 43.4206C91.0535 43.2322 90.4761 43.1605 89.9028 43.2104C89.7679 43.204 89.6328 43.204 89.4979 43.2104H89.5022ZM141.194 43.2104C140.25 43.4129 139.407 43.943 138.816 44.707C138.225 45.4709 137.923 46.4194 137.964 47.3845V60.3076C137.866 60.894 137.897 61.4947 138.054 62.0679C138.212 62.6411 138.493 63.173 138.877 63.6267C139.261 64.0804 139.739 64.445 140.279 64.695C140.818 64.9451 141.406 65.0746 142 65.0746C142.595 65.0746 143.182 64.9451 143.721 64.695C144.261 64.445 144.739 64.0804 145.123 63.6267C145.507 63.173 145.788 62.6411 145.946 62.0679C146.103 61.4947 146.134 60.894 146.036 60.3076V47.3845C146.05 46.81 145.942 46.2391 145.721 45.7089C145.499 45.1787 145.168 44.7012 144.749 44.3074C144.331 43.9137 143.834 43.6125 143.291 43.4234C142.748 43.2344 142.172 43.1618 141.599 43.2104C141.463 43.2039 141.331 43.2039 141.194 43.2104ZM192.887 43.2104C191.942 43.4129 191.1 43.943 190.508 44.707C189.917 45.4709 189.615 46.4194 189.656 47.3845V60.3076C189.56 60.8932 189.593 61.4926 189.751 62.0644C189.91 62.6361 190.191 63.1665 190.576 63.6187C190.96 64.071 191.438 64.4343 191.976 64.6834C192.515 64.9325 193.101 65.0616 193.694 65.0616C194.288 65.0616 194.874 64.9325 195.413 64.6834C195.951 64.4343 196.429 64.071 196.813 63.6187C197.198 63.1665 197.479 62.6361 197.638 62.0644C197.796 61.4926 197.829 60.8932 197.733 60.3076V47.3845C197.747 46.8092 197.639 46.2375 197.417 45.7067C197.194 45.1759 196.863 44.6979 196.443 44.304C196.023 43.9101 195.526 43.6091 194.982 43.4206C194.438 43.2322 193.861 43.1605 193.287 43.2104C193.154 43.2042 193.02 43.2042 192.887 43.2104Z" fill="white" fill-opacity="0.34"/>
<path d="M271.041 8.74883C270.096 8.95135 269.254 9.48148 268.662 10.2454C268.071 11.0093 267.769 11.9578 267.81 12.923V94.7691C267.714 95.3547 267.746 95.9542 267.905 96.5259C268.064 97.0976 268.345 97.628 268.729 98.0803C269.114 98.5325 269.592 98.8958 270.13 99.1449C270.669 99.3941 271.255 99.5231 271.848 99.5231C272.442 99.5231 273.028 99.3941 273.567 99.1449C274.105 98.8958 274.583 98.5325 274.967 98.0803C275.351 97.628 275.633 97.0976 275.791 96.5259C275.95 95.9542 275.983 95.3547 275.887 94.7691V12.923C275.9 12.3477 275.793 11.776 275.57 11.2451C275.348 10.7143 275.016 10.2364 274.597 9.84244C274.177 9.44853 273.679 9.14752 273.136 8.95908C272.592 8.77064 272.015 8.699 271.441 8.74883C271.308 8.74262 271.174 8.74262 271.041 8.74883ZM219.348 13.0565C218.404 13.259 217.561 13.7892 216.97 14.5531C216.379 15.317 216.077 16.2655 216.118 17.2307V90.4614C216.022 91.047 216.054 91.6465 216.213 92.2182C216.372 92.79 216.653 93.3203 217.037 93.7726C217.421 94.2248 217.899 94.5881 218.438 94.8372C218.976 95.0864 219.563 95.2154 220.156 95.2154C220.749 95.2154 221.336 95.0864 221.874 94.8372C222.413 94.5881 222.891 94.2248 223.275 93.7726C223.659 93.3203 223.94 92.79 224.099 92.2182C224.258 91.6465 224.29 91.047 224.194 90.4614V17.2307C224.208 16.6554 224.1 16.0836 223.878 15.5528C223.656 15.022 223.324 14.544 222.905 14.1501C222.485 13.7562 221.987 13.4552 221.443 13.2668C220.9 13.0783 220.322 13.0067 219.749 13.0565C219.615 13.0503 219.482 13.0503 219.348 13.0565ZM258.118 25.9796C257.173 26.1821 256.331 26.7122 255.739 27.4762C255.148 28.2401 254.846 29.1886 254.887 30.1538V77.5384C254.789 78.1247 254.82 78.7254 254.977 79.2986C255.135 79.8718 255.416 80.4038 255.8 80.8575C256.184 81.3112 256.663 81.6758 257.202 81.9258C257.741 82.1758 258.329 82.3054 258.923 82.3054C259.518 82.3054 260.105 82.1758 260.644 81.9258C261.184 81.6758 261.662 81.3112 262.046 80.8575C262.43 80.4038 262.711 79.8718 262.869 79.2986C263.027 78.7254 263.057 78.1247 262.959 77.5384V30.1538C262.973 29.5792 262.865 29.0083 262.644 28.4781C262.422 27.948 262.091 27.4704 261.672 27.0767C261.254 26.6829 260.757 26.3817 260.214 26.1927C259.672 26.0036 259.095 25.9311 258.522 25.9796C258.386 25.9731 258.254 25.9731 258.118 25.9796ZM206.425 30.2873C205.481 30.4898 204.638 31.0199 204.047 31.7839C203.456 32.5478 203.154 33.4963 203.194 34.4615V73.2307C203.096 73.817 203.127 74.4177 203.285 74.9909C203.443 75.5641 203.723 76.0961 204.108 76.5498C204.492 77.0035 204.97 77.3681 205.51 77.6181C206.049 77.8682 206.636 77.9977 207.231 77.9977C207.825 77.9977 208.413 77.8682 208.952 77.6181C209.491 77.3681 209.97 77.0035 210.354 76.5498C210.738 76.0961 211.019 75.5641 211.177 74.9909C211.334 74.4177 211.365 73.817 211.267 73.2307V34.4615C211.281 33.8869 211.173 33.316 210.951 32.7858C210.73 32.2557 210.399 31.7781 209.98 31.3844C209.561 30.9906 209.065 30.6894 208.522 30.5004C207.979 30.3113 207.403 30.2387 206.83 30.2873C206.694 30.2808 206.562 30.2808 206.425 30.2873ZM232.271 34.595C231.327 34.7975 230.484 35.3276 229.893 36.0916C229.302 36.8555 229 37.804 229.041 38.7691V68.923C228.943 69.5094 228.974 70.11 229.131 70.6832C229.289 71.2564 229.57 71.7884 229.954 72.2421C230.338 72.6958 230.816 73.0604 231.356 73.3104C231.895 73.5605 232.482 73.69 233.077 73.69C233.671 73.69 234.259 73.5605 234.798 73.3104C235.338 73.0604 235.816 72.6958 236.2 72.2421C236.584 71.7884 236.865 71.2564 237.023 70.6832C237.18 70.11 237.211 69.5094 237.113 68.923V38.7691C237.127 38.1946 237.019 37.6237 236.797 37.0935C236.576 36.5634 236.245 36.0858 235.826 35.6921C235.408 35.2983 234.911 34.9971 234.368 34.8081C233.825 34.619 233.249 34.5464 232.676 34.595C232.54 34.5885 232.408 34.5885 232.271 34.595ZM283.964 34.595C283.019 34.7975 282.177 35.3276 281.585 36.0916C280.994 36.8555 280.692 37.804 280.733 38.7691V68.923C280.637 69.5086 280.67 70.108 280.828 70.6798C280.987 71.2515 281.268 71.7819 281.653 72.2341C282.037 72.6864 282.515 73.0496 283.053 73.2988C283.592 73.5479 284.178 73.677 284.771 73.677C285.365 73.677 285.951 73.5479 286.49 73.2988C287.028 73.0496 287.506 72.6864 287.89 72.2341C288.274 71.7819 288.556 71.2515 288.714 70.6798C288.873 70.108 288.906 69.5086 288.81 68.923V38.7691C288.824 38.1938 288.716 37.6221 288.493 37.0913C288.271 36.5605 287.939 36.0825 287.52 35.6886C287.1 35.2947 286.603 34.9937 286.059 34.8052C285.515 34.6168 284.938 34.5452 284.364 34.595C284.231 34.5888 284.097 34.5888 283.964 34.595ZM193.502 43.2104C192.558 43.4129 191.715 43.943 191.124 44.707C190.533 45.4709 190.231 46.4194 190.271 47.3845V60.3076C190.175 60.8932 190.208 61.4926 190.367 62.0644C190.526 62.6361 190.807 63.1665 191.191 63.6187C191.575 64.071 192.053 64.4343 192.592 64.6834C193.13 64.9325 193.716 65.0616 194.31 65.0616C194.903 65.0616 195.49 64.9325 196.028 64.6834C196.567 64.4343 197.045 64.071 197.429 63.6187C197.813 63.1665 198.094 62.6361 198.253 62.0644C198.412 61.4926 198.444 60.8932 198.348 60.3076V47.3845C198.362 46.8092 198.254 46.2375 198.032 45.7067C197.81 45.1759 197.478 44.6979 197.058 44.304C196.639 43.9101 196.141 43.6091 195.597 43.4206C195.053 43.2322 194.476 43.1605 193.903 43.2104C193.768 43.204 193.633 43.204 193.498 43.2104H193.502ZM245.194 43.2104C244.25 43.4129 243.407 43.943 242.816 44.707C242.225 45.4709 241.923 46.4194 241.964 47.3845V60.3076C241.866 60.894 241.897 61.4947 242.054 62.0679C242.212 62.6411 242.493 63.173 242.877 63.6267C243.261 64.0804 243.739 64.445 244.279 64.695C244.818 64.9451 245.406 65.0746 246 65.0746C246.595 65.0746 247.182 64.9451 247.721 64.695C248.261 64.445 248.739 64.0804 249.123 63.6267C249.507 63.173 249.788 62.6411 249.946 62.0679C250.103 61.4947 250.134 60.894 250.036 60.3076V47.3845C250.05 46.81 249.942 46.2391 249.721 45.7089C249.499 45.1787 249.168 44.7012 248.749 44.3074C248.331 43.9137 247.834 43.6125 247.291 43.4234C246.748 43.2344 246.172 43.1618 245.599 43.2104C245.463 43.2039 245.331 43.2039 245.194 43.2104ZM296.887 43.2104C295.942 43.4129 295.1 43.943 294.508 44.707C293.917 45.4709 293.615 46.4194 293.656 47.3845V60.3076C293.56 60.8932 293.593 61.4926 293.751 62.0644C293.91 62.6361 294.191 63.1665 294.576 63.6187C294.96 64.071 295.438 64.4343 295.976 64.6834C296.515 64.9325 297.101 65.0616 297.694 65.0616C298.288 65.0616 298.874 64.9325 299.413 64.6834C299.951 64.4343 300.429 64.071 300.813 63.6187C301.198 63.1665 301.479 62.6361 301.638 62.0644C301.796 61.4926 301.829 60.8932 301.733 60.3076V47.3845C301.747 46.8092 301.639 46.2375 301.417 45.7067C301.194 45.1759 300.863 44.6979 300.443 44.304C300.023 43.9101 299.526 43.6091 298.982 43.4206C298.438 43.2322 297.861 43.1605 297.287 43.2104C297.154 43.2042 297.02 43.2042 296.887 43.2104Z" fill="white" fill-opacity="0.34"/>
<path d="M62.0406 8.74883C61.0961 8.95135 60.2536 9.48148 59.6623 10.2454C59.0711 11.0093 58.7691 11.9578 58.8099 12.923V94.7691C58.7139 95.3547 58.7465 95.9542 58.9053 96.5259C59.0641 97.0976 59.3453 97.628 59.7295 98.0803C60.1136 98.5325 60.5916 98.8958 61.1301 99.1449C61.6686 99.3941 62.2549 99.5231 62.8483 99.5231C63.4417 99.5231 64.028 99.3941 64.5666 99.1449C65.1051 98.8958 65.583 98.5325 65.9672 98.0803C66.3514 97.628 66.6326 97.0976 66.7914 96.5259C66.9502 95.9542 66.9827 95.3547 66.8868 94.7691V12.923C66.9005 12.3477 66.7926 11.776 66.5704 11.2451C66.3481 10.7143 66.0164 10.2364 65.5968 9.84244C65.1773 9.44853 64.6794 9.14752 64.1357 8.95908C63.5919 8.77064 63.0146 8.699 62.4413 8.74883C62.3078 8.74262 62.1741 8.74262 62.0406 8.74883ZM10.3483 13.0565C9.40377 13.259 8.5613 13.7892 7.97002 14.5531C7.37874 15.317 7.07678 16.2655 7.11756 17.2307V90.4614C7.02162 91.047 7.05417 91.6465 7.21296 92.2182C7.37175 92.79 7.65298 93.3203 8.03715 93.7726C8.42132 94.2248 8.89925 94.5881 9.4378 94.8372C9.97635 95.0864 10.5626 95.2154 11.156 95.2154C11.7494 95.2154 12.3357 95.0864 12.8743 94.8372C13.4128 94.5881 13.8907 94.2248 14.2749 93.7726C14.6591 93.3203 14.9403 92.79 15.0991 92.2182C15.2579 91.6465 15.2904 91.047 15.1945 90.4614V17.2307C15.2082 16.6554 15.1003 16.0836 14.8781 15.5528C14.6558 15.022 14.3241 14.544 13.9045 14.1501C13.485 13.7562 12.9871 13.4552 12.4434 13.2668C11.8996 13.0783 11.3223 13.0067 10.7489 13.0565C10.6155 13.0503 10.4818 13.0503 10.3483 13.0565ZM49.1176 25.9796C48.173 26.1821 47.3305 26.7122 46.7393 27.4762C46.148 28.2401 45.846 29.1886 45.8868 30.1538V77.5384C45.7888 78.1247 45.8197 78.7254 45.9774 79.2986C46.1351 79.8718 46.4158 80.4038 46.8 80.8575C47.1841 81.3112 47.6625 81.6758 48.2019 81.9258C48.7412 82.1758 49.3286 82.3054 49.9231 82.3054C50.5176 82.3054 51.105 82.1758 51.6443 81.9258C52.1837 81.6758 52.6621 81.3112 53.0462 80.8575C53.4304 80.4038 53.7111 79.8718 53.8688 79.2986C54.0265 78.7254 54.0574 78.1247 53.9594 77.5384V30.1538C53.973 29.5792 53.8653 29.0083 53.6436 28.4781C53.4218 27.948 53.0909 27.4704 52.6723 27.0767C52.2538 26.6829 51.757 26.3817 51.2142 26.1927C50.6715 26.0036 50.0951 25.9311 49.5225 25.9796C49.3862 25.9731 49.2539 25.9731 49.1176 25.9796ZM-2.57475 30.2873C-3.51931 30.4898 -4.36177 31.0199 -4.95305 31.7839C-5.54433 32.5478 -5.8463 33.4963 -5.80552 34.4615V73.2307C-5.90353 73.817 -5.87261 74.4177 -5.71491 74.9909C-5.55721 75.5641 -5.27651 76.0961 -4.89235 76.5498C-4.50819 77.0035 -4.02978 77.3681 -3.49043 77.6181C-2.95107 77.8682 -2.36371 77.9977 -1.76921 77.9977C-1.17471 77.9977 -0.587347 77.8682 -0.0479889 77.6181C0.491367 77.3681 0.96977 77.0035 1.35393 76.5498C1.73809 76.0961 2.01879 75.5641 2.17649 74.9909C2.33419 74.4177 2.36511 73.817 2.2671 73.2307V34.4615C2.28065 33.8869 2.17304 33.316 1.95128 32.7858C1.72952 32.2557 1.39859 31.7781 0.980021 31.3844C0.561455 30.9906 0.0646458 30.6894 -0.47806 30.5004C-1.02077 30.3113 -1.5972 30.2387 -2.16982 30.2873C-2.30616 30.2808 -2.43841 30.2808 -2.57475 30.2873ZM23.2714 34.595C22.3268 34.7975 21.4844 35.3276 20.8931 36.0916C20.3018 36.8555 19.9999 37.804 20.0406 38.7691V68.923C19.9426 69.5094 19.9735 70.11 20.1312 70.6832C20.2889 71.2564 20.5696 71.7884 20.9538 72.2421C21.338 72.6958 21.8164 73.0604 22.3557 73.3104C22.8951 73.5605 23.4824 73.69 24.0769 73.69C24.6714 73.69 25.2588 73.5605 25.7982 73.3104C26.3375 73.0604 26.8159 72.6958 27.2001 72.2421C27.5842 71.7884 27.8649 71.2564 28.0226 70.6832C28.1803 70.11 28.2113 69.5094 28.1133 68.923V38.7691C28.1268 38.1946 28.0192 37.6237 27.7974 37.0935C27.5757 36.5634 27.2447 36.0858 26.8262 35.6921C26.4076 35.2983 25.9108 34.9971 25.3681 34.8081C24.8254 34.619 24.249 34.5464 23.6763 34.595C23.54 34.5885 23.4077 34.5885 23.2714 34.595ZM74.9637 34.595C74.0191 34.7975 73.1767 35.3276 72.5854 36.0916C71.9941 36.8555 71.6922 37.804 71.7329 38.7691V68.923C71.637 69.5086 71.6696 70.108 71.8283 70.6798C71.9871 71.2515 72.2684 71.7819 72.6525 72.2341C73.0367 72.6864 73.5146 73.0496 74.0532 73.2988C74.5917 73.5479 75.178 73.677 75.7714 73.677C76.3648 73.677 76.9511 73.5479 77.4896 73.2988C78.0282 73.0496 78.5061 72.6864 78.8903 72.2341C79.2745 71.7819 79.5557 71.2515 79.7145 70.6798C79.8733 70.108 79.9058 69.5086 79.8099 68.923V38.7691C79.8235 38.1938 79.7157 37.6221 79.4934 37.0913C79.2712 36.5605 78.9394 36.0825 78.5199 35.6886C78.1004 35.2947 77.6025 34.9937 77.0588 34.8052C76.515 34.6168 75.9376 34.5452 75.3643 34.595C75.2309 34.5888 75.0972 34.5888 74.9637 34.595ZM-15.4978 43.2104C-16.4424 43.4129 -17.2849 43.943 -17.8761 44.707C-18.4674 45.4709 -18.7694 46.4194 -18.7286 47.3845V60.3076C-18.8245 60.8932 -18.792 61.4926 -18.6332 62.0644C-18.4744 62.6361 -18.1932 63.1665 -17.809 63.6187C-17.4248 64.071 -16.9469 64.4343 -16.4084 64.6834C-15.8698 64.9325 -15.2835 65.0616 -14.6901 65.0616C-14.0967 65.0616 -13.5105 64.9325 -12.9719 64.6834C-12.4334 64.4343 -11.9554 64.071 -11.5713 63.6187C-11.1871 63.1665 -10.9059 62.6361 -10.7471 62.0644C-10.5883 61.4926 -10.5557 60.8932 -10.6517 60.3076V47.3845C-10.638 46.8092 -10.7458 46.2375 -10.9681 45.7067C-11.1904 45.1759 -11.5221 44.6979 -11.9416 44.304C-12.3611 43.9101 -12.859 43.6091 -13.4028 43.4206C-13.9465 43.2322 -14.5239 43.1605 -15.0972 43.2104C-15.2321 43.204 -15.3672 43.204 -15.5021 43.2104H-15.4978ZM36.1945 43.2104C35.2499 43.4129 34.4075 43.943 33.8162 44.707C33.2249 45.4709 32.9229 46.4194 32.9637 47.3845V60.3076C32.8657 60.894 32.8966 61.4947 33.0543 62.0679C33.212 62.6411 33.4927 63.173 33.8769 63.6267C34.261 64.0804 34.7394 64.445 35.2788 64.695C35.8182 64.9451 36.4055 65.0746 37 65.0746C37.5945 65.0746 38.1819 64.9451 38.7212 64.695C39.2606 64.445 39.739 64.0804 40.1232 63.6267C40.5073 63.173 40.788 62.6411 40.9457 62.0679C41.1034 61.4947 41.1343 60.894 41.0363 60.3076V47.3845C41.0499 46.81 40.9423 46.2391 40.7205 45.7089C40.4988 45.1787 40.1678 44.7012 39.7493 44.3074C39.3307 43.9137 38.8339 43.6125 38.2912 43.4234C37.7485 43.2344 37.172 43.1618 36.5994 43.2104C36.4631 43.2039 36.3308 43.2039 36.1945 43.2104ZM87.8868 43.2104C86.9422 43.4129 86.0998 43.943 85.5085 44.707C84.9172 45.4709 84.6152 46.4194 84.656 47.3845V60.3076C84.5601 60.8932 84.5926 61.4926 84.7514 62.0644C84.9102 62.6361 85.1914 63.1665 85.5756 63.6187C85.9598 64.071 86.4377 64.4343 86.9763 64.6834C87.5148 64.9325 88.1011 65.0616 88.6945 65.0616C89.2879 65.0616 89.8742 64.9325 90.4127 64.6834C90.9513 64.4343 91.4292 64.071 91.8134 63.6187C92.1975 63.1665 92.4788 62.6361 92.6375 62.0644C92.7963 61.4926 92.8289 60.8932 92.7329 60.3076V47.3845C92.7466 46.8092 92.6388 46.2375 92.4165 45.7067C92.1942 45.1759 91.8625 44.6979 91.443 44.304C91.0235 43.9101 90.5256 43.6091 89.9818 43.4206C89.4381 43.2322 88.8607 43.1605 88.2874 43.2104C88.1539 43.2042 88.0203 43.2042 87.8868 43.2104Z" fill="white" fill-opacity="0.34"/>
</g>
</svg>
