<svg width="14" height="14" viewBox="0 0 14 14" fill="none" xmlns="http://www.w3.org/2000/svg">
<g id="mdi:web">
<path id="Vector" d="M9.11082 8.54528C9.15401 8.18893 9.1864 7.83259 9.1864 7.46544C9.1864 7.0983 9.15401 6.74196 9.11082 6.38561H10.9357C11.0221 6.73116 11.0761 7.0929 11.0761 7.46544C11.0761 7.83799 11.0221 8.19973 10.9357 8.54528M8.15516 11.5472C8.47911 10.9479 8.72747 10.3 8.90025 9.62511H10.493C9.96991 10.5258 9.14003 11.2081 8.15516 11.5472ZM8.02018 8.54528H5.49338C5.43939 8.18893 5.40699 7.83259 5.40699 7.46544C5.40699 7.0983 5.43939 6.73656 5.49338 6.38561H8.02018C8.06878 6.73656 8.10657 7.0983 8.10657 7.46544C8.10657 7.83259 8.06878 8.18893 8.02018 8.54528ZM6.75678 11.7632C6.30865 11.1153 5.94691 10.3972 5.72554 9.62511H7.78802C7.56665 10.3972 7.20491 11.1153 6.75678 11.7632ZM4.59712 5.30578H3.02056C3.53815 4.40252 4.36747 3.7191 5.353 3.38368C5.02905 3.98299 4.78609 4.63089 4.59712 5.30578ZM3.02056 9.62511H4.59712C4.78609 10.3 5.02905 10.9479 5.353 11.5472C4.36942 11.2083 3.5412 10.5258 3.02056 9.62511ZM2.57783 8.54528C2.49144 8.19973 2.43745 7.83799 2.43745 7.46544C2.43745 7.0929 2.49144 6.73116 2.57783 6.38561H4.40275C4.35955 6.74196 4.32716 7.0983 4.32716 7.46544C4.32716 7.83259 4.35955 8.18893 4.40275 8.54528M6.75678 3.16231C7.20491 3.81021 7.56665 4.5337 7.78802 5.30578H5.72554C5.94691 4.5337 6.30865 3.81021 6.75678 3.16231ZM10.493 5.30578H8.90025C8.73101 4.63715 8.4808 3.99168 8.15516 3.38368C9.14861 3.72383 9.97468 4.40952 10.493 5.30578ZM6.75678 2.06628C3.77104 2.06628 1.35762 4.49591 1.35762 7.46544C1.35762 8.89739 1.92646 10.2707 2.939 11.2832C3.44036 11.7846 4.03555 12.1823 4.69061 12.4536C5.34567 12.725 6.04775 12.8646 6.75678 12.8646C8.18873 12.8646 9.56202 12.2958 10.5746 11.2832C11.5871 10.2707 12.1559 8.89739 12.1559 7.46544C12.1559 6.75642 12.0163 6.05433 11.745 5.39928C11.4736 4.74422 11.0759 4.14902 10.5746 3.64766C10.0732 3.1463 9.47801 2.7486 8.82295 2.47727C8.16789 2.20594 7.46581 2.06628 6.75678 2.06628Z" fill="white"/>
</g>
</svg>
