<svg width="112" height="112" viewBox="0 0 112 112" fill="none" xmlns="http://www.w3.org/2000/svg">
<g id="wpf:audio-wave">
<path id="Vector" d="M81.0406 8.74883C80.0961 8.95135 79.2536 9.48148 78.6623 10.2454C78.0711 11.0093 77.7691 11.9578 77.8099 12.923V94.7691C77.7139 95.3547 77.7465 95.9542 77.9053 96.5259C78.0641 97.0976 78.3453 97.628 78.7295 98.0803C79.1136 98.5325 79.5916 98.8958 80.1301 99.1449C80.6686 99.3941 81.2549 99.5231 81.8483 99.5231C82.4417 99.5231 83.028 99.3941 83.5666 99.1449C84.1051 98.8958 84.583 98.5325 84.9672 98.0803C85.3514 97.628 85.6326 97.0976 85.7914 96.5259C85.9502 95.9542 85.9827 95.3547 85.8868 94.7691V12.923C85.9005 12.3477 85.7926 11.776 85.5704 11.2451C85.3481 10.7143 85.0164 10.2364 84.5968 9.84244C84.1773 9.44853 83.6794 9.14752 83.1357 8.95908C82.5919 8.77064 82.0146 8.699 81.4413 8.74883C81.3078 8.74262 81.1741 8.74262 81.0406 8.74883ZM29.3483 13.0565C28.4038 13.259 27.5613 13.7892 26.97 14.5531C26.3787 15.317 26.0768 16.2655 26.1176 17.2307V90.4614C26.0216 91.047 26.0542 91.6465 26.213 92.2182C26.3717 92.79 26.653 93.3203 27.0371 93.7726C27.4213 94.2248 27.8992 94.5881 28.4378 94.8372C28.9763 95.0864 29.5626 95.2154 30.156 95.2154C30.7494 95.2154 31.3357 95.0864 31.8743 94.8372C32.4128 94.5881 32.8907 94.2248 33.2749 93.7726C33.6591 93.3203 33.9403 92.79 34.0991 92.2182C34.2579 91.6465 34.2904 91.047 34.1945 90.4614V17.2307C34.2082 16.6554 34.1003 16.0836 33.8781 15.5528C33.6558 15.022 33.3241 14.544 32.9045 14.1501C32.485 13.7562 31.9871 13.4552 31.4434 13.2668C30.8996 13.0783 30.3223 13.0067 29.7489 13.0565C29.6155 13.0503 29.4818 13.0503 29.3483 13.0565ZM68.1176 25.9796C67.173 26.1821 66.3305 26.7122 65.7393 27.4762C65.148 28.2401 64.846 29.1886 64.8868 30.1538V77.5384C64.7888 78.1247 64.8197 78.7254 64.9774 79.2986C65.1351 79.8718 65.4158 80.4038 65.8 80.8575C66.1841 81.3112 66.6625 81.6758 67.2019 81.9258C67.7412 82.1758 68.3286 82.3054 68.9231 82.3054C69.5176 82.3054 70.105 82.1758 70.6443 81.9258C71.1837 81.6758 71.6621 81.3112 72.0462 80.8575C72.4304 80.4038 72.7111 79.8718 72.8688 79.2986C73.0265 78.7254 73.0574 78.1247 72.9594 77.5384V30.1538C72.973 29.5792 72.8653 29.0083 72.6436 28.4781C72.4218 27.948 72.0909 27.4704 71.6723 27.0767C71.2538 26.6829 70.757 26.3817 70.2142 26.1927C69.6715 26.0036 69.0951 25.9311 68.5225 25.9796C68.3862 25.9731 68.2539 25.9731 68.1176 25.9796ZM16.4253 30.2873C15.4807 30.4898 14.6382 31.0199 14.0469 31.7839C13.4557 32.5478 13.1537 33.4963 13.1945 34.4615V73.2307C13.0965 73.817 13.1274 74.4177 13.2851 74.9909C13.4428 75.5641 13.7235 76.0961 14.1077 76.5498C14.4918 77.0035 14.9702 77.3681 15.5096 77.6181C16.0489 77.8682 16.6363 77.9977 17.2308 77.9977C17.8253 77.9977 18.4127 77.8682 18.952 77.6181C19.4914 77.3681 19.9698 77.0035 20.3539 76.5498C20.7381 76.0961 21.0188 75.5641 21.1765 74.9909C21.3342 74.4177 21.3651 73.817 21.2671 73.2307V34.4615C21.2806 33.8869 21.173 33.316 20.9513 32.7858C20.7295 32.2557 20.3986 31.7781 19.98 31.3844C19.5615 30.9906 19.0646 30.6894 18.5219 30.5004C17.9792 30.3113 17.4028 30.2387 16.8302 30.2873C16.6938 30.2808 16.5616 30.2808 16.4253 30.2873ZM42.2714 34.595C41.3268 34.7975 40.4844 35.3276 39.8931 36.0916C39.3018 36.8555 38.9999 37.804 39.0406 38.7691V68.923C38.9426 69.5094 38.9735 70.11 39.1312 70.6832C39.2889 71.2564 39.5696 71.7884 39.9538 72.2421C40.338 72.6958 40.8164 73.0604 41.3557 73.3104C41.8951 73.5605 42.4824 73.69 43.0769 73.69C43.6714 73.69 44.2588 73.5605 44.7982 73.3104C45.3375 73.0604 45.8159 72.6958 46.2001 72.2421C46.5842 71.7884 46.8649 71.2564 47.0226 70.6832C47.1803 70.11 47.2113 69.5094 47.1133 68.923V38.7691C47.1268 38.1946 47.0192 37.6237 46.7974 37.0935C46.5757 36.5634 46.2447 36.0858 45.8262 35.6921C45.4076 35.2983 44.9108 34.9971 44.3681 34.8081C43.8254 34.619 43.249 34.5464 42.6763 34.595C42.54 34.5885 42.4077 34.5885 42.2714 34.595ZM93.9637 34.595C93.0191 34.7975 92.1767 35.3276 91.5854 36.0916C90.9941 36.8555 90.6922 37.804 90.7329 38.7691V68.923C90.637 69.5086 90.6696 70.108 90.8283 70.6798C90.9871 71.2515 91.2684 71.7819 91.6525 72.2341C92.0367 72.6864 92.5146 73.0496 93.0532 73.2988C93.5917 73.5479 94.178 73.677 94.7714 73.677C95.3648 73.677 95.9511 73.5479 96.4896 73.2988C97.0282 73.0496 97.5061 72.6864 97.8903 72.2341C98.2745 71.7819 98.5557 71.2515 98.7145 70.6798C98.8733 70.108 98.9058 69.5086 98.8099 68.923V38.7691C98.8235 38.1938 98.7157 37.6221 98.4934 37.0913C98.2712 36.5605 97.9394 36.0825 97.5199 35.6886C97.1004 35.2947 96.6025 34.9937 96.0588 34.8052C95.515 34.6168 94.9376 34.5452 94.3643 34.595C94.2309 34.5888 94.0972 34.5888 93.9637 34.595ZM3.50218 43.2104C2.55761 43.4129 1.71515 43.943 1.12387 44.707C0.532587 45.4709 0.23062 46.4194 0.271406 47.3845V60.3076C0.175463 60.8932 0.208015 61.4926 0.366804 62.0644C0.525593 62.6361 0.806821 63.1665 1.19099 63.6187C1.57517 64.071 2.05309 64.4343 2.59164 64.6834C3.13019 64.9325 3.71648 65.0616 4.30987 65.0616C4.90325 65.0616 5.48954 64.9325 6.02809 64.6834C6.56664 64.4343 7.04457 64.071 7.42874 63.6187C7.81291 63.1665 8.09414 62.6361 8.25293 62.0644C8.41172 61.4926 8.44427 60.8932 8.34833 60.3076V47.3845C8.362 46.8092 8.25418 46.2375 8.03191 45.7067C7.80963 45.1759 7.47791 44.6979 7.05838 44.304C6.63886 43.9101 6.14097 43.6091 5.59722 43.4206C5.05348 43.2322 4.4761 43.1605 3.90279 43.2104C3.76789 43.204 3.63277 43.204 3.49787 43.2104H3.50218ZM55.1945 43.2104C54.2499 43.4129 53.4075 43.943 52.8162 44.707C52.2249 45.4709 51.9229 46.4194 51.9637 47.3845V60.3076C51.8657 60.894 51.8966 61.4947 52.0543 62.0679C52.212 62.6411 52.4927 63.173 52.8769 63.6267C53.261 64.0804 53.7394 64.445 54.2788 64.695C54.8182 64.9451 55.4055 65.0746 56 65.0746C56.5945 65.0746 57.1819 64.9451 57.7212 64.695C58.2606 64.445 58.739 64.0804 59.1232 63.6267C59.5073 63.173 59.788 62.6411 59.9457 62.0679C60.1034 61.4947 60.1343 60.894 60.0363 60.3076V47.3845C60.0499 46.81 59.9423 46.2391 59.7205 45.7089C59.4988 45.1787 59.1678 44.7012 58.7493 44.3074C58.3307 43.9137 57.8339 43.6125 57.2912 43.4234C56.7485 43.2344 56.172 43.1618 55.5994 43.2104C55.4631 43.2039 55.3308 43.2039 55.1945 43.2104ZM106.887 43.2104C105.942 43.4129 105.1 43.943 104.508 44.707C103.917 45.4709 103.615 46.4194 103.656 47.3845V60.3076C103.56 60.8932 103.593 61.4926 103.751 62.0644C103.91 62.6361 104.191 63.1665 104.576 63.6187C104.96 64.071 105.438 64.4343 105.976 64.6834C106.515 64.9325 107.101 65.0616 107.694 65.0616C108.288 65.0616 108.874 64.9325 109.413 64.6834C109.951 64.4343 110.429 64.071 110.813 63.6187C111.198 63.1665 111.479 62.6361 111.638 62.0644C111.796 61.4926 111.829 60.8932 111.733 60.3076V47.3845C111.747 46.8092 111.639 46.2375 111.417 45.7067C111.194 45.1759 110.863 44.6979 110.443 44.304C110.023 43.9101 109.526 43.6091 108.982 43.4206C108.438 43.2322 107.861 43.1605 107.287 43.2104C107.154 43.2042 107.02 43.2042 106.887 43.2104Z" fill="white" fill-opacity="0.34"/>
</g>
</svg>
