<svg width="24" height="30" viewBox="0 0 24 30" fill="none" xmlns="http://www.w3.org/2000/svg">
<g id="Group 5">
<path id="Vector 1" d="M6.11862 20.2847L3.14053 17.3066C10.4179 11.2855 12.5621 3.46302 12.7246 0.304443L14.2948 6.31476C12.9087 10.4299 9.71037 14.888 8.2845 16.6027C12.6596 15.4331 18.2656 16.1154 20.5217 16.6027L22.6335 20.2847C15.1828 17.6856 8.51914 19.2018 6.11862 20.2847Z" fill="#E15E36"/>
<path id="Vector 2" d="M21.1234 9.45205L23.2292 13.0994C14.6414 17.0319 10.5457 24.0328 9.57128 27.0417L9.6101 20.8298C12.0141 17.2136 16.2573 13.7352 18.0783 12.448C13.5496 12.4454 8.31121 10.3354 6.25808 9.28078L5.17128 5.17769C11.6954 9.61655 18.5244 9.87679 21.1234 9.45205Z" fill="#E15E36"/>
</g>
</svg>
